<?xml version="1.0" encoding="UTF-8" standalone="no"?>
<!-- Created with Inkscape (http://www.inkscape.org/) -->

<svg
   width="32"
   height="32"
   viewBox="0 0 8.4666665 8.4666669"
   version="1.1"
   id="svg5"
   xmlns="http://www.w3.org/2000/svg"
   xmlns:svg="http://www.w3.org/2000/svg">
  <defs
     id="defs2" />
  <g
     id="layer1">
    <g
       fill="none"
       fill-rule="evenodd"
       id="g918"
       transform="scale(0.06614583)">
      <path
         d="M 63.999833,0 C 28.654408,0 0,28.801767 0,64.328876 0,96.581059 23.63623,123.2104 54.434955,127.86248 V 81.379011 H 38.60065 V 64.469253 H 54.434955 V 53.217517 c 0,-18.629003 9.029765,-26.807524 24.433388,-26.807524 7.377494,0 11.278514,0.549627 13.125785,0.801141 V 41.971721 H 81.486523 c -6.539767,0 -8.823288,6.231179 -8.823288,13.254705 v 9.242942 H 91.828333 L 89.227539,81.379011 H 72.663235 V 128.00001 C 103.90105,123.7397 128.00001,96.894023 128.00001,64.328991 128.00001,28.801882 99.345372,4.5688155e-5 63.999833,4.5688155e-5 Z"
         id="path2022"
         style="fill:#000000;stroke-width:2.91655" />
    </g>
  </g>
</svg>
