<?xml version="1.0" encoding="UTF-8" standalone="no"?>
<!-- Created with Inkscape (http://www.inkscape.org/) -->

<svg
   width="32"
   height="32.758999"
   viewBox="0 0 8.4666665 8.6674854"
   version="1.1"
   id="svg5"
   xmlns="http://www.w3.org/2000/svg"
   xmlns:svg="http://www.w3.org/2000/svg">
  <defs
     id="defs2" />
  <g
     id="layer1">
    <g
       id="g836"
       transform="translate(-41.806045,-120.09616)">
      <g
         id="layer2">
        <circle
           style="fill:#ffffff;stroke-width:1.46819"
           id="path1850"
           cx="46.046757"
           cy="124.66251"
           r="4.1010418" />
      </g>
      <g
         id="layer1-4">
        <path
           fill-rule="evenodd"
           d="m 41.806047,124.43658 c 0,1.92063 1.211797,3.54287 2.894553,4.11797 0.211663,0.0379 0.291043,-0.0923 0.291043,-0.20617 0,-0.10308 -0.0053,-0.4449 -0.0053,-0.8084 -1.063632,0.20074 -1.338796,-0.26585 -1.423466,-0.51 -0.04763,-0.12479 -0.254001,-0.51 -0.433919,-0.61308 -0.148167,-0.0814 -0.359834,-0.28243 -0.0053,-0.28756 0.333376,-0.005 0.571507,0.31468 0.650877,0.4449 0.381002,0.65649 0.989546,0.47201 1.232964,0.35808 0.03704,-0.28213 0.148166,-0.47202 0.269876,-0.58053 -0.941921,-0.10852 -1.926175,-0.48287 -1.926175,-2.14308 0,-0.47203 0.164043,-0.86267 0.433919,-1.16649 -0.04233,-0.10851 -0.190501,-0.55341 0.04233,-1.15021 0,0 0.354543,-0.11394 1.164171,0.44488 0.338668,-0.0976 0.698503,-0.14648 1.058338,-0.14648 0.359834,0 0.719669,0.0488 1.058337,0.14648 0.809628,-0.56425 1.164171,-0.44488 1.164171,-0.44488 0.232834,0.5968 0.08467,1.0417 0.04233,1.15021 0.269876,0.30382 0.433917,0.68904 0.433917,1.16649 0,1.66563 -0.989544,2.03456 -1.931465,2.14308 0.153458,0.13564 0.285751,0.39606 0.285751,0.80297 0,0.58053 -0.0053,1.04713 -0.0053,1.19362 0,0.11389 0.07937,0.24954 0.291044,0.20617 1.723207,-0.59646 2.883501,-2.25322 2.883968,-4.11797 0,-2.39809 -1.894425,-4.34042 -4.23335,-4.34042 h 3.4e-5 c -2.338926,0 -4.23335,1.94233 -4.23335,4.34042 z"
           id="path824"
           style="stroke-width:0.535821" />
      </g>
    </g>
  </g>
</svg>
