<?xml version="1.0" encoding="UTF-8" standalone="no"?>
<!-- Created with Inkscape (http://www.inkscape.org/) -->

<svg
   width="32"
   height="32"
   viewBox="0 0 8.4666665 8.4666669"
   version="1.1"
   id="svg5"
   xmlns="http://www.w3.org/2000/svg"
   xmlns:svg="http://www.w3.org/2000/svg">
  <defs
     id="defs2" />
  <g
     id="layer1">
    <g
       fill="none"
       fill-rule="evenodd"
       id="g918"
       transform="scale(0.06614583)">
      <path
         d="M 116.36365,0 H 11.636496 C 5.2075576,0 0,5.2072667 0,11.63635 V 116.3635 c 0,6.42909 5.2075576,11.63635 11.636496,11.63635 H 116.36365 c 6.42894,0 11.63636,-5.20726 11.63636,-11.63635 V 11.63635 C 128.00001,5.2072667 122.79259,0 116.36365,0 Z M 40.459881,104.72715 H 23.295973 V 49.501034 H 40.459881 Z M 31.703382,41.60577 c -5.533085,0 -10.007407,-4.485813 -10.007407,-10.007261 0,-5.521448 4.479995,-10.001443 10.007407,-10.001443 5.51563,0 10.001443,4.485813 10.001443,10.001443 0,5.521448 -4.485813,10.007261 -10.001443,10.007261 z m 73.047188,63.12138 H 87.598595 V 77.870456 c 0,-6.405811 -0.110546,-14.644347 -8.919413,-14.644347 -8.930753,0 -10.303842,6.975992 -10.303842,14.178893 V 104.72715 H 51.223214 V 49.501034 H 67.68894 v 7.546173 h 0.233018 c 2.292216,-4.340359 7.8893,-8.919262 16.238527,-8.919262 17.378895,0 20.590525,11.438532 20.590525,26.309788 v 30.289417 z"
         id="path2184"
         style="fill:#000000;stroke-width:5.81816" />
    </g>
  </g>
</svg>
