<?xml version="1.0" encoding="UTF-8" standalone="no"?>
<!-- Created with Inkscape (http://www.inkscape.org/) -->

<svg
   width="32"
   height="32"
   viewBox="0 0 8.4666665 8.4666669"
   version="1.1"
   id="svg5"
   xmlns="http://www.w3.org/2000/svg"
   xmlns:svg="http://www.w3.org/2000/svg">
  <defs
     id="defs2" />
  <g
     id="layer1">
    <g
       fill="none"
       fill-rule="evenodd"
       id="g918"
       transform="scale(0.06614583)">
      <path
         d="m 127.99608,24.311696 c -4.71091,2.092135 -9.77153,3.500044 -15.0832,4.135062 5.42486,-3.248975 9.58462,-8.393218 11.54382,-14.526914 -5.07031,3.007781 -10.692,5.193463 -16.67805,6.374912 -4.78995,-5.104842 -11.612818,-8.294755 -19.164172,-8.294755 -14.502177,0 -26.257714,11.760348 -26.257714,26.257713 0,2.057684 0.235482,4.066159 0.678526,5.981088 C 41.212971,43.146019 21.866621,32.690134 8.9100208,16.799627 6.6555753,20.678739 5.3608267,25.187919 5.3608267,30.007263 c 0,9.107002 4.6322279,17.145785 11.6766203,21.851888 -4.302484,-0.137805 -8.3537938,-1.31937 -11.8932962,-3.283449 0,0.113415 0,0.216641 0,0.329848 0,12.72518 9.0480102,23.338541 21.0642972,25.745745 -2.20045,0.600554 -4.524005,0.920619 -6.921286,0.920619 -1.688411,0 -3.337595,-0.167445 -4.937513,-0.46763 3.342556,10.431217 13.040364,18.026956 24.529844,18.238636 -8.983862,7.04439 -20.306047,11.24345 -32.6129653,11.24345 -2.1165712,0 -4.2089135,-0.12384 -6.2665277,-0.36926 11.622509,7.44805 25.420892,11.79479 40.252928,11.79479 48.30167,0 74.707062,-40.011746 74.707062,-74.711907 0,-1.137088 -0.0173,-2.269364 -0.0692,-3.396667 5.13445,-3.706786 9.58946,-8.329219 13.10924,-13.591584 z"
         id="path2103"
         style="fill:#000000;stroke-width:4.9227" />
    </g>
  </g>
</svg>
